<svg id="heart_fileld" data-name="heart fileld" xmlns="http://www.w3.org/2000/svg" viewBox="0 0 100 100"><defs><style>.cls-1{fill:#fff;}</style></defs><title>Tekengebied 1</title><path class="cls-1" d="M70.61,13.91a18.12,18.12,0,0,0-11.33,3.93A26.45,26.45,0,0,0,53,25.14a3.45,3.45,0,0,1-5.94,0,26.45,26.45,0,0,0-6.31-7.3,18.12,18.12,0,0,0-11.33-3.93,19.72,19.72,0,0,0-14.67,6.38,23.76,23.76,0,0,0-6,16.23c0,6.64,2.47,12.59,8,19.27C22.12,62.25,30.08,69,39.3,76.89h0c3.22,2.75,6.87,5.86,10.67,9.18,3.83-3.33,7.49-6.45,10.71-9.2C69.92,69,77.88,62.25,83.23,55.79c5.54-6.68,8-12.63,8-19.27a23.76,23.76,0,0,0-6-16.23A19.72,19.72,0,0,0,70.61,13.91Z"/><path class="cls-1" d="M70.61,8.44a23.48,23.48,0,0,0-14.67,5.07A29.75,29.75,0,0,0,50,19.71a30,30,0,0,0-5.93-6.2A23.53,23.53,0,0,0,29.39,8.44,25.11,25.11,0,0,0,10.7,16.58,29.17,29.17,0,0,0,3.29,36.52c0,7.9,2.94,15.13,9.26,22.76C18.21,66.1,26.34,73,35.75,81.05h0C39,83.8,42.61,86.9,46.39,90.2a5.47,5.47,0,0,0,7.22,0c3.78-3.31,7.43-6.41,10.64-9.15,9.41-8,17.54-15,23.2-21.77,6.32-7.63,9.26-14.86,9.26-22.76A29.17,29.17,0,0,0,89.3,16.58,25.11,25.11,0,0,0,70.61,8.44ZM83.23,55.79C77.88,62.25,69.92,69,60.7,76.88c-3.22,2.75-6.88,5.87-10.71,9.2-3.8-3.32-7.45-6.43-10.67-9.18h0C30.08,69,22.12,62.25,16.77,55.79c-5.54-6.68-8-12.63-8-19.27a23.76,23.76,0,0,1,6-16.23,19.72,19.72,0,0,1,14.67-6.38,18.12,18.12,0,0,1,11.33,3.93A26.45,26.45,0,0,1,47,25.14a3.45,3.45,0,0,0,5.94,0,26.45,26.45,0,0,1,6.31-7.3,18.12,18.12,0,0,1,11.33-3.93,19.72,19.72,0,0,1,14.67,6.38,23.76,23.76,0,0,1,6,16.23C91.24,43.16,88.77,49.11,83.23,55.79Z"/></svg>